# xmcd CD database file
#
# Track frame offsets:
#	150
#	27253
#	53807
#	76366
#
# Disc length: 1280 seconds
#
# Revision: 0
# Processed by: cddbd v1.5.1PL0 Copyright (c) Steve Scherf et al.
# Submitted via: CDex 1.51
#
DISCID=2704fe04
DTITLE=TREAD - TREAD3.5
DYEAR=1900
DGENRE=House
TTITLE0=Find Out A Space
TTITLE1=Drizzle (Ambientrumental)
TTITLE2=Island
TTITLE3=Silent Illusion (1st Take)
EXTD=
EXTT0=
EXTT1=
EXTT2=
EXTT3=
PLAYORDER=
